<?xml version="1.0" encoding="UTF-8"?><svg id="Layer_2" xmlns="http://www.w3.org/2000/svg" viewBox="0 0 235.72 235.35"><defs><style>.cls-1{fill:#c1c1c1;}.cls-2{fill:#fff;}.cls-3{fill:#944923;}.cls-4{fill:#c4beb6;}</style></defs><g id="Layer_1-2"><path class="cls-1" d="M61.68,24.48c18.68-.06,37.67-.8,56.28-.52,43.74.66,81.34,35.4,89.72,77.52.64,3.2,1.27,3.55,1,0-1.05-13.64,1.17-30.3-.5-43,2.64,1.6,4.37,5.42,6,8-1.2,22.96,2.86,47.8-3.14,70.11-8.87,32.95-38.52,59.27-70.85,68.4-.12.87,1.14.47,1.74.49,13.71.52,27.93.05,41.76,0,3.16-.01,6.34.03,9.5,0,2.2-.02,14.69.39,15.28-.47l.22-15.53c1.55-1.86,2.74-5.79,5.5-6.5-1.25,7.37,1.12,18.23.03,25.78-.25,1.72-1.05,2.5-2.75,2.75-6.87,1-18.78-.06-26.28-.03-3.66.01-7.34-.01-11,0-18.84.05-38.01.87-56.77.52-46.19-.85-84.52-40.18-89.73-85.02-.87-.12-.47,1.14-.49,1.74-.28,7.15.5,14.35.52,21.53.02,3.88.54,28.35-.02,29.73-.02.06-.86-.39-1.05.71-.45,2.67.42,6.87.55,9.79.21,4.81.83,9.64.5,14.5h14.5c2.08,1.84,4.4,3.45,6.57,5.2.68.55,1.43-.09.43,1.3-4.46-.56-24.86.94-26.89-.61-1.41-1.07-.22-23.69-.59-27.18l-.52-2.21c.88-3.4.52-7.42.5-11-.12-24.69-3.27-56.6,5.76-79.49,10.93-27.71,39.47-52.26,68.24-59.51l.49-.25-.49-.25c-14.16-.12-28.34.16-42.5,0-2.92-.03-6.36-.47-9.5-.5-5.33-.05-10.68.04-16,0l-.5,16c-.9,2.69-4.64,5.22-6,7,.76-5.06-1.6-24.9,1.46-27.79.86-.81,2.16-1.07,3.29-1.21,7.23-.88,16.11.63,23.52.02M113.58,34.13c-50.59,3.3-88.58,50.34-78.06,100.76,12.8,61.34,79.91,86.48,131.31,51,69.28-47.82,30.82-157.25-53.26-151.76Z"/><path class="cls-2" d="M109.54,7.08c-16.75,1.55-34.35,7.37-47.86,17.4-3.09.01-7.22-.02-11.55.01C80.64-3.75,131.62-7.27,167.52,12.4c3.19,1.75,15.75,11.13,17.04,11.46,5.34,1.35,17.06-.41,23.39.11,2.99.24,5.79.32,6.24,3.76,1,7.68-1.48,19.73.2,26.8.45,1.87,6.97,10.58,8.55,13.45,16.74,30.51,16.94,67.74,1.17,98.69-1.61,3.15-9.64,14.61-9.93,16.32-2.76.71-3.95,4.64-5.5,6.5-4.62,5.55-10.84,10.41-15.5,16-3.16.03-6.34-.01-9.5,0,19-17.39,37.05-38.11,42.75-64s2.25-52.13-12.25-75c-1.63-2.58-3.36-6.4-6-8-.51-3.85-12.15-15.1-15.49-18.26-20.24-19.09-39.59-30.81-68.01-33.24l-.1-.02c-4.81-.72-9.7-.69-14.51.04-.25.04-.43.06-.52.07ZM208.18,30.48l-16.01.26,16.01,15.74v-16Z"/><path class="cls-2" d="M27.68,179.98c19.39,23.49,44.7,43.66,75.83,47.92,24.8,3.4,48.45-1.48,69.45-14.92.65-.41,1.45-.43,1.22-1.5,3.66-.01,7.34.01,11,0-32.27,28.51-82.8,30.98-119.83,10.08-3.72-2.1-13.24-9.72-16.17-10.08,1-1.39.24-.75-.43-1.3-2.16-1.75-4.48-3.36-6.57-5.2-4.7-4.16-8.64-8.79-12.98-13.27-.58-.6-1.09-1.2-2.02-1.23-.13-2.91-.99-7.11-.55-9.79.19-1.11,1.02-.65,1.05-.71Z"/><path class="cls-2" d="M53.18,30.98c-14.56,12.63-28.3,25.73-36.93,43.32-13.65,27.83-12.85,64.53,2.17,91.69.84,1.51,1.79,3.53,3.26,4.49.02,3.58.38,7.6-.5,11C-4.18,150.41-6.63,100.73,13.1,66.15c2.32-4.07,5.33-9.05,8.08-12.67,1.36-1.78,5.1-4.31,6-7l16.5-16c3.14.03,6.58.47,9.5.5Z"/><path class="cls-4" d="M208.68,101.48c.27,3.55-.36,3.2-1,0h1Z"/><polygon class="cls-3" points="95.68 31.48 95.68 30.98 96.17 31.23 95.68 31.48"/></g></svg>