<?xml version="1.0" encoding="UTF-8"?>
<svg id="Layer_2" data-name="Layer 2" xmlns="http://www.w3.org/2000/svg" viewBox="0 0 328 328">
  <defs>
    <style>
      .cls-1 {
        fill: #212121;
      }

      .cls-2 {
        fill: #944923;
      }

      .cls-3 {
        fill: #713c1e;
      }

      .cls-4 {
        fill: #fff;
        stroke: #f47d02;
        stroke-miterlimit: 10;
        stroke-width: 8px;
      }
    </style>
  </defs>
  <g id="Layer_1-2" data-name="Layer 1">
    <g>
      <circle class="cls-4" cx="164" cy="164" r="160"/>
      <g>
        <path class="cls-3" d="M249.44,100.94l.02-8.74.11-11.02-11.8.03-6.74-5.41,24.02-.09.15,24.64v10.06s-.26,56.99-.26,56.99c-.05,12.03-3.01,23.86-8.53,34.14-5.93,11.04-12.59,21.04-22.22,28.78-8.51,6.84-16.76,12.17-27.47,16.35l32.21.14,9.32-.37,11.3.43-.07-11.04c1.43-2.3,3.78-4.7,5.43-6.78l.16,23.28-25.55.28-10.58-.08-56.48-.18c-18-.06-34.46-5.49-49.5-14.85-8.25-5.14-14.5-11.76-21.05-18.98-5.97-6.58-9.47-14.31-13.44-22.57l-.24,29.69c-2.42-2.39-4.34-5.46-5.75-8.55l.43-55.48c.15-18.92,6.78-37.61,18.92-51.91,13.18-15.52,21.28-20.13,39.09-28.57l-31.78.16-9.96.23-10.79-.39.22,11.06c-2.04,2.05-3.27,5.32-5.89,6.61l.13-23.12,25.43-.04c3.5,0,6.37.02,9.92.02,2.66,0,38.7-.51,58.26,0,12.66.33,24.03,3.07,35.55,7.99,8.22,3.51,15.14,8.51,22.26,14.12,9.29,7.32,15.99,17.06,21.47,27.47l3.85,7.31-.15-31.63ZM202.88,237.76c8.36-4.08,14.77-9.19,21.47-15.27,10.88-9.87,17.47-22.87,22.04-37.05,4.4-13.64,4.42-29.12.03-42.79s-11.15-27.16-22-37.07c-6.92-6.32-13.69-11.58-21.98-15.57-21.16-10.18-44.9-11.64-67.23-4.15-7.97,2.67-14.78,6.52-21.81,11.23-8.58,5.76-15.4,13.27-21.53,22.16-18.12,26.28-18.11,63.27.02,89.52,6.13,8.88,12.98,16.41,21.59,22.18,7.03,4.71,13.83,8.53,21.74,11.18,22.37,7.48,46.14,6.11,67.65-4.39Z"/>
        <path class="cls-2" d="M99.16,81.31l-7.15,5.86c-41.89,34.34-42.15,101.78-22.95,125.66l3.43,4.26c1.41,3.09,3.33,6.16,5.75,8.55,5.91,10.53,23.57,23.91,34.72,29.68,33.16,17.15,74.4,16.78,105.99-2.78l10.58.08c-39.15,27.85-93,27.29-132.32-.33-2.26-1.59-5.45-3.55-7.43-5.37-3.83-3.53-7.96-7.01-11.2-11.04l-6.01-7.5c-.88-1.1-2.37-3.09-3.35-4.56-23.96-36.03-23.91-83.42-.11-119.54,1.31-1.99,3.44-3.17,3.62-5.47,2.62-1.29,3.85-4.55,5.89-6.61l10.58-10.66,9.96-.23Z"/>
        <path class="cls-2" d="M254.91,229.06c-1.65,2.08-4,4.48-5.43,6.78-3.98,3.24-7.88,6.74-11.23,10.6l-9.32.37c21.82-18.79,32.07-32.59,39.56-61.32,3.61-13.84,3.68-29.02.01-42.83-3.09-11.66-6.76-22.69-13.31-32.25v-10.06c5.34,6.84,9.57,14.45,13.31,23.06,11.03,25.39,10.95,55.87,0,81.28-3.9,9.05-8.72,16.56-13.59,24.37Z"/>
        <path class="cls-2" d="M230.05,75.79l6.74,5.41c3.72,3.83,7.56,7.61,11.69,11l-.02,8.74c-8.69-8.08-14.34-15.96-25.26-22.58-7.11-4.31-13.67-8.15-21.51-11.04-26.33-9.71-40.22-11.19-81.1,1.44-3.5,1.08-7.15,1.58-15.14,6.9-.89,0-4.64-.02-8.15-.02,5.39-4.88,11.95-8.03,18.98-11.13,27.13-11.97,57.62-12.87,85.66-3.04,10.21,3.58,19.12,8.92,28.1,14.32Z"/>
        <path class="cls-3" d="M78.57,235.87l-.27,10.93,11.47.11c1.98,1.83,5.17,3.79,7.43,5.37l-24.34.1-.3-24.02,6.01,7.5Z"/>
        <path class="cls-1" d="M128.11,211.53l-4.56-.02c-.61,0-.68-2.38-.08-2.47l2.29-.33c2.09-.3,4.9-.75,6.38-2.14,1.07-1.01,1.99-3.65,1.99-5.69v-75.67c0-2.23-1.07-5.1-2.37-6.05-2.34-1.71-4.66-1.38-8.6-2.31-.49-.12.1-2.29.8-2.3l37.67-.03c12.83,0,28.43,3.46,32.66,16.89,3.49,11.13-1.51,22.79-11.57,28.67-3.89,2.27-8.38,3.26-12.99,4.88,8.76,1.83,16.35,4.16,18.9,14.35l5.77,23.05c.44,1.76,1.89,4.62,3.25,5.34,5.81,3.1,9.05-3.43,10.72-4.12.43-.18,1.69.66,1.54,1.11-1.56,4.92-7.37,8.61-13.87,8.96s-12.06-2.95-14.13-9.35c-.74-2.28-1.94-4.93-2.54-7.24-1.97-7.73-3.28-15.22-5.71-22.68-1.68-5.15-5.96-8.82-11.32-8.8l-14.77.06.07,34.66c0,2.1.83,5.73,2.59,6.74,2.69,1.54,5.72,1.56,8.9,1.96l.17,2.57-5.47-.05M179.79,129.65c-2.5-5.8-6.39-10.04-12.48-11.41-5-1.13-10.3-1.57-15.38-.27-2.75.71-4.23,4.43-4.24,7.24l-.11,37.47c6.09.08,11.76.16,17.46-.55,15.72-1.95,19.61-21.24,14.76-32.48Z"/>
        <text/>
      </g>
    </g>
  </g>
</svg>